<?xml version="1.0" encoding="UTF-8"?>
<svg width="1024" height="1024" viewBox="0 0 1024 1024" fill="none" xmlns="http://www.w3.org/2000/svg">
  <defs>
    <!-- Main gradient - sophisticated and appealing -->
    <radialGradient id="mainGradient" cx="0.3" cy="0.3" r="1.4">
      <stop offset="0%" stop-color="#4f46e5" />
      <stop offset="35%" stop-color="#7c3aed" />
      <stop offset="70%" stop-color="#ec4899" />
      <stop offset="100%" stop-color="#f59e0b" />
    </radialGradient>
    
    <!-- Calendar gradient -->
    <linearGradient id="calendarGradient" x1="0%" y1="0%" x2="100%" y2="100%">
      <stop offset="0%" stop-color="#ffffff" stop-opacity="0.98" />
      <stop offset="100%" stop-color="#f8fafc" stop-opacity="0.95" />
    </linearGradient>
    
    <!-- Accent gradient for highlights -->
    <linearGradient id="accentGradient" x1="0%" y1="0%" x2="100%" y2="100%">
      <stop offset="0%" stop-color="#06b6d4" />
      <stop offset="100%" stop-color="#3b82f6" />
    </linearGradient>
    
    <!-- Glow effect -->
    <filter id="glow" x="-50%" y="-50%" width="200%" height="200%">
      <feGaussianBlur stdDeviation="6" result="coloredBlur"/>
      <feMerge> 
        <feMergeNode in="coloredBlur"/>
        <feMergeNode in="SourceGraphic"/>
      </feMerge>
    </filter>
    
    <!-- Soft shadow -->
    <filter id="softShadow" x="-50%" y="-50%" width="200%" height="200%">
      <feDropShadow dx="0" dy="4" stdDeviation="8" flood-color="rgba(0,0,0,0.15)"/>
    </filter>
    
    <!-- Highlight overlay -->
    <radialGradient id="highlightOverlay" cx="0.2" cy="0.2" r="1.3">
      <stop stop-color="white" stop-opacity="0.4" />
      <stop offset="0.6" stop-color="white" stop-opacity="0.1" />
      <stop offset="1" stop-color="white" stop-opacity="0" />
    </radialGradient>
  </defs>
  
  <!-- Main background circle with vibrant gradient -->
  <circle cx="512" cy="512" r="500" fill="url(#mainGradient)" />
  
  <!-- Subtle outer ring for depth -->
  <circle cx="512" cy="512" r="485" fill="none" stroke="rgba(255,255,255,0.3)" stroke-width="6" />
  
  <!-- Central calendar interface -->
  <rect x="280" y="320" width="464" height="384" rx="40" fill="url(#calendarGradient)" filter="url(#softShadow)" />
  
  <!-- Calendar header with accent gradient -->
  <rect x="280" y="320" width="464" height="96" rx="40" fill="url(#accentGradient)" />
  <rect x="280" y="392" width="464" height="24" fill="url(#accentGradient)" />
  
  <!-- Modern calendar tabs -->
  <rect x="320" y="352" width="32" height="40" rx="8" fill="rgba(255,255,255,0.95)" />
  <rect x="376" y="352" width="32" height="40" rx="8" fill="rgba(255,255,255,0.95)" />
  <rect x="432" y="352" width="32" height="40" rx="8" fill="rgba(255,255,255,0.95)" />
  <rect x="488" y="352" width="32" height="40" rx="8" fill="rgba(255,255,255,0.95)" />
  <rect x="544" y="352" width="32" height="40" rx="8" fill="rgba(255,255,255,0.95)" />
  <rect x="600" y="352" width="32" height="40" rx="8" fill="rgba(255,255,255,0.95)" />
  <rect x="656" y="352" width="32" height="40" rx="8" fill="rgba(255,255,255,0.95)" />
  
  <!-- Calendar grid - clean and modern -->
  <line x1="280" y1="480" x2="744" y2="480" stroke="rgba(148,163,184,0.3)" stroke-width="2" />
  <line x1="280" y1="560" x2="744" y2="560" stroke="rgba(148,163,184,0.3)" stroke-width="2" />
  <line x1="280" y1="640" x2="744" y2="640" stroke="rgba(148,163,184,0.3)" stroke-width="2" />
  
  <!-- Vertical grid lines -->
  <line x1="380" y1="440" x2="380" y2="704" stroke="rgba(148,163,184,0.3)" stroke-width="2" />
  <line x1="480" y1="440" x2="480" y2="704" stroke="rgba(148,163,184,0.3)" stroke-width="2" />
  <line x1="580" y1="440" x2="580" y2="704" stroke="rgba(148,163,184,0.3)" stroke-width="2" />
  <line x1="680" y1="440" x2="680" y2="704" stroke="rgba(148,163,184,0.3)" stroke-width="2" />
  
  <!-- Multi-industry appointment indicators -->
  
  <!-- Active appointment - gradient circle -->
  <circle cx="430" cy="520" r="24" fill="url(#accentGradient)" filter="url(#glow)" />
  <circle cx="430" cy="520" r="16" fill="rgba(255,255,255,0.9)" />
  <circle cx="430" cy="520" r="8" fill="url(#accentGradient)" />
  
  <!-- Confirmed appointments -->
  <circle cx="530" cy="520" r="20" fill="#10b981" />
  <path d="M522 520 L528 526 L538 514" stroke="white" stroke-width="3" stroke-linecap="round" stroke-linejoin="round" />
  
  <circle cx="630" cy="600" r="20" fill="#f59e0b" />
  <circle cx="630" cy="600" r="12" fill="white" />
  <circle cx="630" cy="600" r="6" fill="#f59e0b" />
  
  <!-- Pending appointment -->
  <circle cx="330" cy="600" r="18" fill="#8b5cf6" />
  <rect x="324" y="594" width="12" height="12" rx="2" fill="white" />
  
  <!-- Multi-industry visual elements around the icon -->
  
  <!-- Elegant corner accents -->
  <g transform="translate(200,200)">
    <circle r="32" fill="url(#accentGradient)" fill-opacity="0.8" filter="url(#glow)" />
    <circle r="20" fill="white" fill-opacity="0.9" />
    <path d="M-8,-8 L8,8 M-8,8 L8,-8" stroke="url(#accentGradient)" stroke-width="3" stroke-linecap="round" />
  </g>
  
  <g transform="translate(824,200)">
    <circle r="28" fill="#10b981" fill-opacity="0.8" filter="url(#glow)" />
    <circle r="18" fill="white" fill-opacity="0.9" />
    <circle r="8" fill="#10b981" />
  </g>
  
  <g transform="translate(200,824)">
    <circle r="28" fill="#f59e0b" fill-opacity="0.8" filter="url(#glow)" />
    <path d="M-12,0 L-4,-8 L4,0 L-4,8 Z" fill="white" />
  </g>
  
  <g transform="translate(824,824)">
    <circle r="32" fill="#ec4899" fill-opacity="0.8" filter="url(#glow)" />
    <circle r="20" fill="white" fill-opacity="0.9" />
    <path d="M-10,-6 L-6,-10 L6,-10 L10,-6 L10,6 L6,10 L-6,10 L-10,6 Z" fill="#ec4899" />
  </g>
  
  <!-- Subtle connecting elements -->
  <g transform="translate(150,400)" opacity="0.6">
    <circle r="12" fill="white" fill-opacity="0.8" />
    <circle r="6" fill="url(#accentGradient)" />
  </g>
  
  <g transform="translate(874,600)" opacity="0.6">
    <circle r="12" fill="white" fill-opacity="0.8" />
    <circle r="6" fill="#10b981" />
  </g>
  
  <g transform="translate(400,150)" opacity="0.6">
    <circle r="10" fill="white" fill-opacity="0.8" />
    <circle r="4" fill="#f59e0b" />
  </g>
  
  <g transform="translate(624,874)" opacity="0.6">
    <circle r="10" fill="white" fill-opacity="0.8" />
    <circle r="4" fill="#8b5cf6" />
  </g>
  
  <!-- Professional "S" monogram in center -->
  <circle cx="512" cy="372" r="28" fill="white" fill-opacity="0.95" filter="url(#softShadow)" />
  <path d="M504,364 Q508,360 514,360 Q520,360 524,364 Q528,368 528,372 Q528,376 524,380 Q520,384 514,384 Q508,384 504,380 Q500,376 500,372 Q500,368 504,364 Z" fill="none" stroke="url(#accentGradient)" stroke-width="3" />
  <path d="M508,368 Q510,366 514,366 Q518,366 520,368 Q520,370 518,372 Q516,374 514,374 Q512,374 510,372 Q508,370 508,368 Z M508,376 Q510,374 514,374 Q518,374 520,376 Q520,378 518,380 Q516,382 514,382 Q512,382 510,380 Q508,378 508,376 Z" fill="url(#accentGradient)" />
  
  <!-- Modern highlight overlay for premium feel -->
  <circle cx="512" cy="512" r="500" fill="url(#highlightOverlay)" />
  
  <!-- Subtle border for definition -->
  <circle cx="512" cy="512" r="496" fill="none" stroke="rgba(255,255,255,0.2)" stroke-width="8" />
</svg>