<?xml version="1.0" encoding="UTF-8"?>
<svg width="512" height="512" viewBox="0 0 512 512" fill="none" xmlns="http://www.w3.org/2000/svg">
  <!-- Background Circle -->
  <circle cx="256" cy="256" r="248" fill="#3b5ac2" />
  <circle cx="256" cy="256" r="224" fill="#4b69d0" />
  
  <!-- Calendar Base -->
  <rect x="128" y="144" width="256" height="240" rx="24" fill="white" />
  
  <!-- Calendar Top Bar -->
  <rect x="128" y="144" width="256" height="48" rx="24" fill="#e5b452" />
  
  <!-- Calendar Tabs -->
  <rect x="152" y="168" width="16" height="24" rx="4" fill="white" />
  <rect x="184" y="168" width="16" height="24" rx="4" fill="white" />
  <rect x="216" y="168" width="16" height="24" rx="4" fill="white" />
  <rect x="248" y="168" width="16" height="24" rx="4" fill="white" />
  <rect x="280" y="168" width="16" height="24" rx="4" fill="white" />
  <rect x="312" y="168" width="16" height="24" rx="4" fill="white" />
  <rect x="344" y="168" width="16" height="24" rx="4" fill="white" />
  
  <!-- Calendar Grid -->
  <line x1="128" y1="216" x2="384" y2="216" stroke="#e5e7eb" stroke-width="2" />
  <line x1="128" y1="264" x2="384" y2="264" stroke="#e5e7eb" stroke-width="2" />
  <line x1="128" y1="312" x2="384" y2="312" stroke="#e5e7eb" stroke-width="2" />
  <line x1="172" y1="192" x2="172" y2="384" stroke="#e5e7eb" stroke-width="2" />
  <line x1="216" y1="192" x2="216" y2="384" stroke="#e5e7eb" stroke-width="2" />
  <line x1="260" y1="192" x2="260" y2="384" stroke="#e5e7eb" stroke-width="2" />
  <line x1="304" y1="192" x2="304" y2="384" stroke="#e5e7eb" stroke-width="2" />
  <line x1="348" y1="192" x2="348" y2="384" stroke="#e5e7eb" stroke-width="2" />
  
  <!-- Calendar Highlights -->
  <rect x="216" y="216" width="44" height="48" rx="6" fill="#eef1fb" />
  <rect x="172" y="264" width="44" height="48" rx="6" fill="#3b5ac2" fill-opacity="0.1" />
  <rect x="260" y="264" width="44" height="48" rx="6" fill="#e5b452" fill-opacity="0.2" />
  <rect x="304" y="312" width="44" height="48" rx="6" fill="#3b5ac2" fill-opacity="0.1" />
  
  <!-- Check Mark for Completed -->
  <circle cx="238" cy="240" r="12" fill="#3b5ac2" />
  <path d="M232 240L236 244L244 236" stroke="white" stroke-width="2" stroke-linecap="round" stroke-linejoin="round" />
  
  <!-- Industry Icons Scattered -->
  <circle cx="194" cy="288" r="10" fill="#3b5ac2" />
  <path d="M194 284V292M190 288H198" stroke="white" stroke-width="1.5" stroke-linecap="round" />
  
  <circle cx="282" cy="288" r="10" fill="#e5b452" />
  <path d="M278 288H286M282 284V292" stroke="white" stroke-width="1.5" stroke-linecap="round" />
  
  <circle cx="326" cy="336" r="10" fill="#3b5ac2" />
  <path d="M322 336H330" stroke="white" stroke-width="1.5" stroke-linecap="round" />
  
  <!-- Outer Ring Gradient -->
  <circle cx="256" cy="256" r="248" fill="url(#paint0_radial)" fill-opacity="0.2" />
  
  <!-- Definitions -->
  <defs>
    <radialGradient id="paint0_radial" cx="0" cy="0" r="1" gradientUnits="userSpaceOnUse" gradientTransform="translate(256 256) rotate(90) scale(248)">
      <stop stop-color="white" stop-opacity="0.2" />
      <stop offset="1" stop-color="white" stop-opacity="0" />
    </radialGradient>
  </defs>
</svg>